Coordinates
version=1
nRows=10
nColumns=40
inDegrees=yes

Units are S.I. units (second, meters, Newtons, ...)
Angles are in degrees.

endheader
time	pelvis_tilt	pelvis_list	pelvis_rotation	pelvis_tx	pelvis_ty	pelvis_tz	hip_flexion_r	hip_adduction_r	hip_rotation_r	knee_angle_r	knee_angle_r_beta	ankle_angle_r	subtalar_angle_r	mtp_angle_r	hip_flexion_l	hip_adduction_l	hip_rotation_l	knee_angle_l	knee_angle_l_beta	ankle_angle_l	subtalar_angle_l	mtp_angle_l	lumbar_extension	lumbar_bending	lumbar_rotation	arm_flex_r	arm_add_r	arm_rot_r	elbow_flex_r	pro_sup_r	wrist_flex_r	wrist_dev_r	arm_flex_l	arm_add_l	arm_rot_l	elbow_flex_l	pro_sup_l	wrist_flex_l	wrist_dev_l
     53.99000000	     -3.63281810	     -3.22216593	      1.33767133	      0.80604622	      0.92933393	      0.42394516	     27.16068999	     -7.35590556	     -6.95519981	     68.30798137	     68.30798137	     -2.15241243	    -18.03957683	      4.08453041	     16.55827838	     -2.28941823	     -5.64791335	     23.93149972	     23.93149972	     13.72020537	     -9.86694334	      1.90932581	     -9.02460001	      6.23055910	      2.74716059	      6.32077743	    -12.72156610	     -8.17391167	     33.15637223	     45.93644642	      0.00000000	      0.00000000	     14.07007479	    -16.05423342	    -10.27496155	     50.98031663	     46.09354632	      0.00000000	      0.00000000
     54.00342857	     -3.67853636	     -3.18100636	      1.02614961	      0.80559759	      0.93076624	      0.42365245	     28.26424451	     -7.26187078	     -7.03848356	     66.93565147	     66.93565147	     -1.58195544	    -17.98063237	      3.96581933	     15.44881060	     -2.22157971	     -6.01503923	     22.73333541	     22.73333541	     13.75136262	     -9.53215630	      2.10332861	     -9.13111362	      6.15539877	      2.93418000	      4.35921525	    -12.61356362	     -7.86515495	     31.54742065	     45.97044744	      0.00000000	      0.00000000	     15.41388049	    -16.27693009	    -10.61423511	     51.87548419	     46.15903739	      0.00000000	      0.00000000
     54.01685714	     -3.73389488	     -3.16080474	      0.75267669	      0.80517925	      0.93197790	      0.42339356	     29.26011715	     -7.13242010	     -7.16487335	     65.38053658	     65.38053658	     -1.05352986	    -17.89186263	      3.81941989	     14.42309219	     -2.21228562	     -6.50138843	     21.66565338	     21.66565338	     13.84772296	     -8.91485766	      2.01265050	     -9.24625047	      6.09463943	      3.01627535	      2.34567342	    -12.47909986	     -7.54187790	     30.02436985	     45.99927197	      0.00000000	      0.00000000	     16.59664256	    -16.60098804	    -11.02530608	     52.96426982	     46.23093188	      0.00000000	      0.00000000
     54.03028571	     -3.76067770	     -3.14786311	      0.48145829	      0.80474474	      0.93307352	      0.42325424	     30.09818425	     -6.95699080	     -7.28885843	     63.60509563	     63.60509563	     -0.56732772	    -17.79080202	      3.67770239	     13.38656888	     -2.22851476	     -7.07273257	     20.62471421	     20.62471421	     13.91174368	     -8.16290655	      1.70089612	     -9.39509373	      6.03302608	      3.10248843	      0.42656133	    -12.32779346	     -7.13586947	     28.43528652	     46.02718326	      0.00000000	      0.00000000	     17.69229702	    -16.91387435	    -11.53998195	     54.29048236	     46.31698599	      0.00000000	      0.00000000
     54.04371429	     -3.84023195	     -3.16120025	      0.23185441	      0.80422289	      0.93396877	      0.42320904	     30.86976462	     -6.71742005	     -7.39615385	     61.58995068	     61.58995068	     -0.09113800	    -17.63207979	      3.65305106	     12.41548612	     -2.24940222	     -7.56832073	     19.55831016	     19.55831016	     13.96625833	     -7.45792970	      1.45636509	     -9.49020425	      6.01723451	      2.98694182	     -1.39661740	    -12.18483821	     -6.84629788	     27.19859202	     46.04787962	      0.00000000	      0.00000000	     18.62820492	    -17.28229445	    -11.99250132	     55.46724542	     46.38915627	      0.00000000	      0.00000000
     54.05714286	     -3.89036170	     -3.15158173	     -0.00355503	      0.80365675	      0.93465664	      0.42329989	     31.48924761	     -6.48411183	     -7.49289810	     59.35659087	     59.35659087	      0.42398947	    -17.42185638	      3.56551547	     11.46932252	     -2.26324836	     -8.15140617	     18.57606567	     18.57606567	     13.97522201	     -6.67085832	      0.98072960	     -9.61486381	      5.93765287	      2.93875969	     -3.15297127	    -12.02966112	     -6.50774913	     25.96547290	     46.06759184	      0.00000000	      0.00000000	     19.52698596	    -17.61431690	    -12.55844468	     56.92180516	     46.47687472	      0.00000000	      0.00000000
     54.07057143	     -4.02440754	     -3.15216394	     -0.20938748	      0.80295316	      0.93509337	      0.42350411	     32.04833030	     -6.24013186	     -7.62400528	     56.80506530	     56.80506530	      0.83529133	    -17.10998971	      3.35376249	     10.66288266	     -2.29392606	     -8.70413388	     17.64214993	     17.64214993	     13.90683817	     -5.84552792	      0.29440591	     -9.68762505	      5.88353075	      2.74896601	     -4.76196709	    -11.89898394	     -6.16592350	     24.95677562	     46.08245219	      0.00000000	      0.00000000	     20.17303622	    -17.94448111	    -13.22100591	     58.49631764	     46.57628754	      0.00000000	      0.00000000
     54.08400000	     -4.23863065	     -3.21642543	     -0.35070178	      0.80211045	      0.93521225	      0.42383586	     32.55679416	     -5.91503967	     -7.79059734	     54.00098264	     54.00098264	      1.36639967	    -16.63320825	      3.33746699	     10.04124080	     -2.36049075	     -8.99101953	     16.85167844	     16.85167844	     13.98606861	     -5.33301024	      0.08429811	     -9.61440614	      5.91890513	      2.38455702	     -6.35770182	    -11.79912276	     -6.07803489	     24.34267489	     46.09195981	      0.00000000	      0.00000000	     20.88202299	    -18.41554425	    -13.57188632	     59.38839518	     46.62802243	      0.00000000	      0.00000000
     54.09742857	     -4.30333598	     -3.18160747	     -0.54377591	      0.80126786	      0.93533134	      0.42439857	     32.77086828	     -5.63152604	     -7.85016663	     50.91838525	     50.91838525	      1.82814518	    -16.00603421	      2.99153231	      9.21883687	     -2.36180606	     -9.54441131	     16.00454666	     16.00454666	     14.02720503	     -4.51195422	     -0.46256896	     -9.79382142	      5.76308887	      2.33883699	     -7.97136252	    -11.72891994	     -5.97317859	     23.83695597	     46.09915398	      0.00000000	      0.00000000	     21.59951415	    -18.62044607	    -14.06342880	     60.91856864	     46.70426149	      0.00000000	      0.00000000
     54.11085714	     -4.53101882	     -3.19264581	     -0.65809628	      0.80025141	      0.93494712	      0.42505983	     32.94206311	     -5.34029367	     -8.07507554	     47.41922972	     47.41922972	      1.61119307	    -15.46810210	      0.79557678	      8.73056624	     -2.45192742	    -10.10519353	     15.38013045	     15.38013045	     13.74206519	     -3.74304422	     -2.10938963	     -9.81030954	      5.67365742	      1.74698492	     -9.45829386	    -11.73176043	     -5.74199320	     24.16858474	     46.09334151	      0.00000000	      0.00000000	     21.51675181	    -19.00429441	    -15.22080424	     63.33778979	     46.88278948	      0.00000000	      0.00000000
